{
  "accessors": [
    {
      "bufferView": 2,
      "componentType": 5126,
      "count": 28815,
      "max": [
        0.2621283233165741,
        0.2816445231437683,
        0.2656354308128357
      ],
      "min": [
        -0.2546670138835907,
        -0.2749330401420593,
        -0.2553725242614746
      ],
      "type": "VEC3"
    },
    {
      "bufferView": 2,
      "byteOffset": 345780,
      "componentType": 5126,
      "count": 28815,
      "max": [
        0.9999985694885254,
        0.9999741315841675,
        0.9999662637710571
      ],
      "min": [
        -0.9999797344207764,
        -0.9999593496322632,
        -0.9999416470527649
      ],
      "type": "VEC3"
    },
    {
      "bufferView": 1,
      "componentType": 5126,
      "count": 28815,
      "max": [
        0.9915762543678284,
        0.9986335039138794
      ],
      "min": [
        0.0013699638657271862,
        0.0013647675514221191
      ],
      "type": "VEC2"
    },
    {
      "bufferView": 1,
      "byteOffset": 230520,
      "componentType": 5126,
      "count": 28815,
      "max": [
        0.9915762543678284,
        0.9986335039138794
      ],
      "min": [
        0.0013699638657271862,
        0.0013647675514221191
      ],
      "type": "VEC2"
    },
    {
      "bufferView": 1,
      "byteOffset": 461040,
      "componentType": 5126,
      "count": 28815,
      "max": [
        0.9915762543678284,
        0.9986335039138794
      ],
      "min": [
        0.0013699638657271862,
        0.0013647675514221191
      ],
      "type": "VEC2"
    },
    {
      "bufferView": 0,
      "componentType": 5125,
      "count": 147636,
      "type": "SCALAR"
    }
  ],
  "asset": {
    "extras": {
      "author": "Akhfani (https://sketchfab.com/Akhfani)",
      "license": "CC-BY-4.0 (http://creativecommons.org/licenses/by/4.0/)",
      "source": "https://sketchfab.com/3d-models/apel-55de88fd3ba74cfdb8df8d148f75ce99",
      "title": "Apel"
    },
    "generator": "Sketchfab-16.28.0",
    "version": "2.0"
  },
  "bufferViews": [
    {
      "buffer": 0,
      "byteLength": 590544,
      "name": "floatBufferViews",
      "target": 34963
    },
    {
      "buffer": 0,
      "byteLength": 691560,
      "byteOffset": 590544,
      "byteStride": 8,
      "name": "floatBufferViews",
      "target": 34962
    },
    {
      "buffer": 0,
      "byteLength": 691560,
      "byteOffset": 1282104,
      "byteStride": 12,
      "name": "floatBufferViews",
      "target": 34962
    }
  ],
  "buffers": [
    {
      "byteLength": 1973664,
      "uri": "scene.bin"
    }
  ],
  "images": [
    {
      "uri": "textures/Material_0_baseColor.jpeg"
    },
    {
      "uri": "textures/Material_0_metallicRoughness.png"
    }
  ],
  "materials": [
    {
      "doubleSided": true,
      "name": "Material_0",
      "pbrMetallicRoughness": {
        "baseColorTexture": {
          "index": 0
        },
        "metallicRoughnessTexture": {
          "index": 1
        }
      }
    }
  ],
  "meshes": [
    {
      "name": "Object_0",
      "primitives": [
        {
          "attributes": {
            "NORMAL": 1,
            "POSITION": 0,
            "TEXCOORD_0": 2,
            "TEXCOORD_1": 3,
            "TEXCOORD_2": 4
          },
          "indices": 5,
          "material": 0,
          "mode": 4
        }
      ]
    }
  ],
  "nodes": [
    {
      "children": [
        1
      ],
      "matrix": [
        1.0,
        0.0,
        0.0,
        0.0,
        0.0,
        2.220446049250313e-16,
        -1.0,
        0.0,
        0.0,
        1.0,
        2.220446049250313e-16,
        0.0,
        0.0,
        0.0,
        0.0,
        1.0
      ],
      "name": "Sketchfab_model"
    },
    {
      "children": [
        2
      ],
      "name": "root"
    },
    {
      "children": [
        3
      ],
      "matrix": [
        1.0,
        0.0,
        0.0,
        0.0,
        0.0,
        2.220446049250313e-16,
        1.0,
        0.0,
        0.0,
        -1.0,
        2.220446049250313e-16,
        0.0,
        0.0,
        0.0,
        0.0,
        1.0
      ],
      "name": "GLTF_SceneRootNode"
    },
    {
      "children": [
        4
      ],
      "matrix": [
        1.7966947555541992,
        0.0,
        0.0,
        0.0,
        0.0,
        1.7966947555541992,
        0.0,
        0.0,
        0.0,
        0.0,
        1.7966947555541992,
        0.0,
        0.0,
        0.0,
        0.0,
        1.0
      ],
      "name": "high_poly_0"
    },
    {
      "mesh": 0,
      "name": "Object_4"
    }
  ],
  "samplers": [
    {
      "magFilter": 9729,
      "minFilter": 9987,
      "wrapS": 10497,
      "wrapT": 10497
    }
  ],
  "scene": 0,
  "scenes": [
    {
      "name": "Sketchfab_Scene",
      "nodes": [
        0
      ]
    }
  ],
  "textures": [
    {
      "sampler": 0,
      "source": 0
    },
    {
      "sampler": 0,
      "source": 1
    }
  ]
}
